# xmcd CD database file
#
# Track frame offsets:
#	150
#	4712
#	16462
#	33198
#	39133
#
# Disc length: 676 seconds
#
# Revision: 0
# Processed by: cddbd v1.5.1PL2 Copyright (c) Steve Scherf et al.
# Submitted via: CDex 1.60beta1
#
DISCID=2802a205
DTITLE=merveilles.org - Affectionate Mine
DYEAR=1900
DGENRE=サウンドトラック (一般)
TTITLE0=a flower basket - lost sequence, restore from m4a
TTITLE1=affectionate mine - beta
TTITLE2=D-Mize - The Girl's 43rd False Demise Edit.
TTITLE3=teardrop
TTITLE4=affectionate mine - beta (instrumental)
EXTD=
EXTT0=
EXTT1=
EXTT2=
EXTT3=
EXTT4=
PLAYORDER=
